<svg width="197" height="50" viewBox="0 0 197 50" fill="none" xmlns="http://www.w3.org/2000/svg">
<path d="M22.4484 26.235C22.4484 20.0313 19.0632 15.252 10.4579 15.252H1.25146V37.218H10.4579C19.0632 37.218 22.4484 32.4387 22.4484 26.235ZM16.1842 26.235C16.1842 30.5712 13.7482 32.1855 10.363 32.1855H7.2309V20.2845H10.363C13.7482 20.2845 16.1842 21.8987 16.1842 26.235Z" fill="white"/>
<path d="M23.8804 37.218H41.2808V32.2171H29.8598V28.4506H39.8887V23.7029H29.8598V20.2529H40.9961V15.252H23.8804V37.218Z" fill="white"/>
<path d="M61.5364 22.88C61.5364 17.3409 57.993 15.252 52.4882 15.252H42.9653V37.218H48.9448V30.508H52.4882C57.993 30.508 61.5364 28.4189 61.5364 22.88ZM55.3356 22.88C55.3356 25.0323 54.3232 25.9185 51.887 25.9185H48.9448V19.8414H51.887C54.3232 19.8414 55.3356 20.7276 55.3356 22.88Z" fill="white"/>
<path d="M62.189 20.3795H69.1175V37.218H75.0969V20.3795H82.0254V15.252H62.189V20.3795Z" fill="white"/>
<path d="M79.5408 34.1426C79.5408 36.1304 81.1492 37.7395 83.1364 37.7395C85.1231 37.7395 86.7476 36.1304 86.7476 34.1426C86.7476 32.1547 85.1231 30.5298 83.1364 30.5298C81.1492 30.5298 79.5408 32.1547 79.5408 34.1426ZM80.2346 34.1426C80.2346 32.5019 81.5276 31.1608 83.1364 31.1608C84.7444 31.1608 86.0535 32.5019 86.0535 34.1426C86.0535 35.7832 84.7444 37.1084 83.1364 37.1084C81.5276 37.1084 80.2346 35.7832 80.2346 34.1426ZM81.4488 35.9253H82.5839V34.6947H83.231L83.9087 35.9253H85.1388L84.3187 34.4739C84.6974 34.3161 84.9807 33.8902 84.9807 33.4169C84.9807 32.5807 84.4447 32.1863 83.5299 32.1863H81.4488V35.9253ZM83.8296 33.4326C83.8296 33.7323 83.6411 33.8586 83.278 33.8586H82.5839V33.0697H83.278C83.6411 33.0697 83.8296 33.1645 83.8296 33.4326Z" fill="white"/>
<path d="M135.307 24.5156H132.012V36H126.666V24.5156H124.615V21.8906L126.775 20.5781V20.3184C126.775 18.9785 126.953 17.8893 127.309 17.0508C127.664 16.2031 128.229 15.5788 129.004 15.1777C129.779 14.7767 130.79 14.5762 132.039 14.5762C132.841 14.5762 133.566 14.64 134.213 14.7676C134.869 14.8952 135.553 15.0775 136.264 15.3145L135.115 18.7734C134.851 18.7005 134.555 18.6367 134.227 18.582C133.908 18.5273 133.561 18.5 133.188 18.5C132.777 18.5 132.477 18.6276 132.285 18.8828C132.103 19.1289 132.012 19.5345 132.012 20.0996V20.5098H135.307V24.5156ZM142.225 36.2734C140.63 36.2734 139.317 35.5944 138.287 34.2363C137.257 32.8783 136.742 30.8913 136.742 28.2754C136.742 25.6322 137.271 23.6315 138.328 22.2734C139.385 20.9154 140.753 20.2363 142.43 20.2363C143.122 20.2363 143.719 20.3366 144.221 20.5371C144.722 20.7376 145.155 21.0111 145.52 21.3574C145.893 21.6947 146.217 22.0775 146.49 22.5059H146.6C146.536 22.1139 146.477 21.5762 146.422 20.8926C146.367 20.1999 146.34 19.5254 146.34 18.8691V14.7266H151.727V36H147.693L146.545 34.0449H146.34C146.094 34.4551 145.784 34.8288 145.41 35.166C145.046 35.5033 144.599 35.7721 144.07 35.9727C143.551 36.1732 142.936 36.2734 142.225 36.2734ZM144.412 32.0488C145.269 32.0488 145.87 31.7799 146.217 31.2422C146.572 30.6953 146.764 29.8659 146.791 28.7539V28.3301C146.791 27.1087 146.618 26.1745 146.271 25.5273C145.934 24.8711 145.296 24.543 144.357 24.543C143.719 24.543 143.191 24.8529 142.771 25.4727C142.352 26.0924 142.143 27.054 142.143 28.3574C142.143 29.6426 142.352 30.5814 142.771 31.1738C143.2 31.7572 143.747 32.0488 144.412 32.0488ZM165.125 20.2363C166.72 20.2363 168.023 20.6875 169.035 21.5898C170.047 22.4922 170.553 23.9368 170.553 25.9238V36H165.207V27.5508C165.207 26.5208 165.057 25.7461 164.756 25.2266C164.464 24.6979 163.99 24.4336 163.334 24.4336C162.322 24.4336 161.643 24.8483 161.297 25.6777C160.951 26.498 160.777 27.6784 160.777 29.2188V36H155.432V20.5098H159.465L160.189 22.5605H160.395C160.723 22.0684 161.115 21.6491 161.57 21.3027C162.026 20.9564 162.55 20.6921 163.143 20.5098C163.735 20.3275 164.396 20.2363 165.125 20.2363ZM179.002 36.2734C177.407 36.2734 176.094 35.5944 175.064 34.2363C174.035 32.8783 173.52 30.8913 173.52 28.2754C173.52 25.6322 174.048 23.6315 175.105 22.2734C176.163 20.9154 177.53 20.2363 179.207 20.2363C179.9 20.2363 180.497 20.3366 180.998 20.5371C181.499 20.7376 181.932 21.0111 182.297 21.3574C182.671 21.6947 182.994 22.0775 183.268 22.5059H183.377C183.313 22.1139 183.254 21.5762 183.199 20.8926C183.145 20.1999 183.117 19.5254 183.117 18.8691V14.7266H188.504V36H184.471L183.322 34.0449H183.117C182.871 34.4551 182.561 34.8288 182.188 35.166C181.823 35.5033 181.376 35.7721 180.848 35.9727C180.328 36.1732 179.713 36.2734 179.002 36.2734ZM181.189 32.0488C182.046 32.0488 182.648 31.7799 182.994 31.2422C183.35 30.6953 183.541 29.8659 183.568 28.7539V28.3301C183.568 27.1087 183.395 26.1745 183.049 25.5273C182.712 24.8711 182.074 24.543 181.135 24.543C180.497 24.543 179.968 24.8529 179.549 25.4727C179.13 26.0924 178.92 27.054 178.92 28.3574C178.92 29.6426 179.13 30.5814 179.549 31.1738C179.977 31.7572 180.524 32.0488 181.189 32.0488Z" fill="#66E5BF"/>
<path d="M100.4 34L99 32.6L104.6 27L99 21.4L100.4 20L106 25.6L111.6 20L113 21.4L107.4 27L113 32.6L111.6 34L106 28.4L100.4 34Z" fill="white"/>
</svg>
